# xmcd
#
# Track frame offsets: 
#        150
#        9835
#        21025
#        32910
#        44530
#        55440
#        66070
#        78310
#        89205
#        101015
#        110672
#        122622
#        135260
#        145720
#        156682
#        166312
#        177890
#
# Disc length: 2537 seconds
#
# Revision: 0
# Processed by: cddbd v1.5.2PL0 Copyright (c) Steve Scherf et al.
# Submitted via: ExactAudioCopy v0.99pb4
#
DISCID=e509e711
DTITLE=Gene Allison - Gene Allison
DYEAR=1959
DGENRE=Soul
TTITLE0=You Can Make It If You Try
TTITLE1=I'll Be Waiting For You
TTITLE2=Hey, Hey, I Love You
TTITLE3=I Don't Know Why
TTITLE4=Everything's Alright (Everything Will Be Alright)
TTITLE5=I Believe In Myself
TTITLE6=Have Faith
TTITLE7=Let There Be Woman
TTITLE8=Everybody But Me
TTITLE9=Reap What You Sow
TTITLE10=Tell Me The Truth
TTITLE11=Let's Sit And Talk
TTITLE12=My Heart Remembers
TTITLE13=I'm A Fool For Waiting You
TTITLE14=Oh Yeah, I'm In Love
TTITLE15=Without You
TTITLE16=Three Times Seven
EXTD=
EXTT0=
EXTT1=
EXTT2=
EXTT3=
EXTT4=
EXTT5=
EXTT6=
EXTT7=
EXTT8=
EXTT9=
EXTT10=
EXTT11=
EXTT12=
EXTT13=
EXTT14=
EXTT15=
EXTT16=
PLAYORDER=
